<svg width="11" height="13" viewBox="0 0 11 13" fill="none" xmlns="http://www.w3.org/2000/svg">
<path d="M5.5 6C7.14062 6 8.5 4.66406 8.5 3C8.5 1.35938 7.14062 0 5.5 0C3.83594 0 2.5 1.35938 2.5 3C2.5 4.66406 3.83594 6 5.5 6ZM7.58594 6.75H7.1875C6.67188 7.00781 6.10938 7.125 5.5 7.125C4.89062 7.125 4.30469 7.00781 3.78906 6.75H3.39062C1.65625 6.75 0.25 8.17969 0.25 9.91406V10.875C0.25 11.5078 0.742188 12 1.375 12H9.625C10.2344 12 10.75 11.5078 10.75 10.875V9.91406C10.75 8.17969 9.32031 6.75 7.58594 6.75Z" fill="#155BCB"/>
</svg>
